<?xml version="1.0" standalone="no"?>
<!DOCTYPE svg PUBLIC "-//W3C//DTD SVG 20010904//EN"
 "http://www.w3.org/TR/2001/REC-SVG-20010904/DTD/svg10.dtd">
<svg version="1.0" xmlns="http://www.w3.org/2000/svg"
 width="667.000000pt" height="667.000000pt" viewBox="0 0 667.000000 667.000000"
 preserveAspectRatio="xMidYMid meet">
<metadata>
Created by potrace 1.11, written by Peter Selinger 2001-2013
</metadata>
<g transform="translate(0.000000,667.000000) scale(0.100000,-0.100000)"
fill="#000000" stroke="none">
<path d="M5425 5833 c-11 -3 -35 -19 -52 -36 -29 -27 -41 -31 -97 -33 -50 -2
-74 -9 -108 -30 -97 -62 -226 -206 -294 -329 l-39 -70 0 -130 c0 -184 23 -381
51 -436 7 -14 13 -45 12 -68 0 -37 -7 -49 -54 -98 -30 -31 -68 -85 -86 -120
-40 -80 -90 -116 -248 -179 -73 -30 -107 10 -144 170 -4 17 -3 32 4 36 13 8 3
40 -13 40 -6 0 -18 6 -26 13 -25 22 -101 38 -192 42 -85 3 -386 46 -469 67
-28 7 -57 24 -78 46 -102 104 -425 180 -547 128 -66 -28 -82 -51 -120 -171
-56 -181 -128 -272 -270 -344 -45 -22 -99 -56 -120 -74 -22 -18 -101 -64 -176
-100 -218 -108 -273 -149 -479 -356 -202 -203 -252 -247 -319 -281 -40 -20
-53 -22 -125 -15 -175 16 -210 13 -258 -20 -76 -54 -162 -257 -186 -443 -11
-90 -8 -502 5 -510 8 -5 23 -85 25 -127 0 -2 6 -28 14 -57 7 -29 14 -58 14
-64 0 -16 -81 -53 -115 -52 -34 1 -179 -46 -270 -88 -33 -15 -63 -28 -66 -28
-4 -1 -42 -23 -84 -50 -101 -64 -183 -146 -224 -222 -21 -41 -67 -95 -140
-167 -59 -58 -118 -126 -130 -150 -23 -45 -24 -54 -6 -267 12 -143 71 -226
184 -259 58 -17 188 -15 289 4 213 41 546 177 756 309 48 31 91 56 95 56 3 0
19 -24 35 -53 34 -59 116 -145 161 -167 17 -8 46 -24 65 -36 228 -139 490
-223 800 -259 132 -15 547 -13 650 4 94 15 183 47 361 129 37 17 141 56 230
87 195 67 371 151 506 242 116 78 268 152 373 182 144 42 206 71 395 184 203
122 467 311 531 379 17 18 42 58 56 88 15 31 80 119 149 200 154 182 190 238
228 353 110 329 85 596 -71 759 -95 99 -166 136 -448 234 -215 75 -315 123
-350 167 -24 30 -22 29 32 -11 56 -41 75 -51 64 -33 -4 5 16 26 44 46 27 20
64 55 82 78 82 104 207 237 224 237 7 0 28 -20 46 -44 18 -24 51 -56 73 -72
l40 -29 216 0 217 0 50 48 c28 26 59 47 68 47 53 0 156 89 259 226 114 150
165 192 221 178 52 -13 16 56 -50 98 -28 18 -95 67 -148 110 -54 43 -105 78
-115 78 -10 0 -31 -19 -48 -43 -53 -77 -108 -137 -118 -130 -6 3 -7 1 -3 -5 4
-7 3 -12 -2 -12 -10 0 -95 -112 -145 -190 -22 -33 -26 -35 -79 -35 -45 0 -72
8 -142 43 -47 24 -91 52 -97 64 -13 24 -6 151 12 212 8 29 41 70 127 158 135
137 205 190 242 183 13 -2 27 1 31 7 16 26 -36 85 -141 158 -91 64 -113 89
-106 123 15 74 -94 -13 -240 -193 -112 -139 -164 -220 -164 -258 0 -28 -3 -32
-13 -23 -8 6 -16 9 -18 6 -3 -2 -33 22 -67 55 -59 56 -62 61 -62 107 0 35 10
69 35 121 68 143 261 410 291 404 21 -4 18 52 -3 70 -10 9 -34 24 -53 33 -50
26 -70 52 -70 96 0 67 -12 77 -75 62z m-499 -1180 c-10 -10 -19 5 -10 18 6 11
8 11 12 0 2 -7 1 -15 -2 -18z"/>
</g>
</svg>
