<?xml version="1.0" encoding="UTF-8" standalone="no"?>
<svg
   xmlns:dc="http://purl.org/dc/elements/1.1/"
   xmlns:cc="http://creativecommons.org/ns#"
   xmlns:rdf="http://www.w3.org/1999/02/22-rdf-syntax-ns#"
   xmlns:svg="http://www.w3.org/2000/svg"
   xmlns="http://www.w3.org/2000/svg"
   xmlns:sodipodi="http://sodipodi.sourceforge.net/DTD/sodipodi-0.dtd"
   xmlns:inkscape="http://www.inkscape.org/namespaces/inkscape"
   sodipodi:docname="sconehungus.svg"
   inkscape:version="1.0 (4035a4f, 2020-05-01)"
   id="svg8"
   version="1.1"
   viewBox="0 0 210 297"
   height="297mm"
   width="210mm">
  <defs
     id="defs2" />
  <sodipodi:namedview
     inkscape:window-maximized="0"
     inkscape:window-y="23"
     inkscape:window-x="49"
     inkscape:window-height="755"
     inkscape:window-width="1231"
     showgrid="false"
     inkscape:document-rotation="0"
     inkscape:current-layer="layer1"
     inkscape:document-units="mm"
     inkscape:cy="560"
     inkscape:cx="-98.571429"
     inkscape:zoom="0.35"
     inkscape:pageshadow="2"
     inkscape:pageopacity="0.0"
     borderopacity="1.0"
     bordercolor="#666666"
     pagecolor="#ffffff"
     id="base" />
  <metadata
     id="metadata5">
    <rdf:RDF>
      <cc:Work
         rdf:about="">
        <dc:format>image/svg+xml</dc:format>
        <dc:type
           rdf:resource="http://purl.org/dc/dcmitype/StillImage" />
        <dc:title></dc:title>
      </cc:Work>
    </rdf:RDF>
  </metadata>
  <g
     id="layer1"
     inkscape:groupmode="layer"
     inkscape:label="Layer 1">
    <g
       inkscape:export-ydpi="93.731987"
       inkscape:export-xdpi="93.731987"
       id="g52">
      <path
         style="fill:#ffff00;stroke:#000000;stroke-width:0.26458300000000001px;stroke-linecap:butt;stroke-linejoin:miter;stroke-opacity:1"
         d="m 40.821427,140.60714 c -7.601553,13.26252 -3.552759,21.74189 0.755954,35.52976 1.799614,5.75877 2.843554,11.87894 6.80357,16.63096 1.16327,1.39592 2.994832,2.06075 4.535715,3.0238 11.231311,7.01957 25.517604,8.10717 38.553572,6.80358 3.737229,-0.37373 7.238095,-2.2592 10.583332,-3.77977 3.91995,-1.78179 8.2076,-2.68446 12.09524,-4.53571 9.81668,-4.67461 6.71391,-4.85454 15.11905,-8.31548 2.21047,-0.91019 4.64057,-1.24997 6.80357,-2.26785 4.7885,-2.25342 17.54717,-10.22653 21.16666,-14.3631 0.74208,-0.84808 0.86567,-2.10061 1.51191,-3.02381 1.1286,-1.61229 2.55032,-2.99892 3.77976,-4.53571 1.8815,-2.35188 4.24489,-4.6809 5.29167,-7.55953 2.24343,-6.16943 3.96341,-14.46559 0,-20.41071 -4.39122,-6.58683 -13.93263,-7.34429 -20.41072,-10.58333 -2.81533,-1.40767 -2.02791,-1.68993 -4.53571,-3.77977 -1.86672,-1.55559 -4.15032,-2.26192 -6.04762,-3.77976 -1.87245,-1.49796 -1.38649,-2.68821 -3.02381,-3.77976 -3.25509,-2.17006 -5.66495,-3.07579 -9.07143,-4.53571 -1.67016,-0.71579 -2.87524,-2.28582 -4.53571,-3.02381 -5.72549,-2.54466 -11.93697,-3.77976 -18.14286,-3.77976 -1.03232,0 -3.447236,-0.36283 -4.535714,0 -2.43678,0.81226 -4.613687,2.5284 -6.803572,3.77976 -3.60916,2.06238 -7.807336,3.1725 -11.339285,5.29166 -2.963259,1.77796 -5.369057,5.44645 -6.803572,8.31548 -0.573771,1.14754 -11.40459,10.306 -12.851189,11.33929 -3.477929,2.48423 -8.654925,2.71143 -12.095239,5.29166 -2.88875,2.16656 -3.952599,3.90939 -6.803572,6.04762 z"
         id="path12" />
      <path
         style="fill:#ff7f2a;stroke:#000000;stroke-width:0.26458300000000001px;stroke-linecap:butt;stroke-linejoin:miter;stroke-opacity:1"
         d="m 129.26786,110.36905 c -2.91308,0 -34.819022,8.36068 -40.821434,14.36309 -1.532757,1.53276 -2.247,3.75891 -3.77976,5.29167 -1.642735,1.64273 -3.47757,3.08443 -5.291667,4.53571 -2.419564,1.93565 -6.24305,2.64841 -9.071427,3.77976 -2.28567,0.91427 -3.613981,2.96855 -6.047621,3.77977 -10.581667,3.52722 -19.781046,7.29191 -27.970236,15.11904 -0.756337,-7.36684 -0.84771,-16.65936 3.023809,-23.43452 3.520082,-6.16014 8.103038,-1.02771 12.095238,-3.02381 5.227646,-2.61382 8.457133,-8.76211 15.119048,-13.60714 4.543955,-3.3047 10.422109,-5.18419 15.119047,-8.31548 2.676934,-1.78462 4.577478,-3.86329 6.047619,-6.80357 1.395438,-2.790875 0.730491,-6.608216 4.535714,-7.559522 4.213484,-1.053371 10.11931,0.698588 13.60714,3.023809 0.59302,0.395345 0.87443,1.193167 1.51191,1.511905 1.63481,0.817404 10.43605,1.784828 12.85119,2.267858 0.84004,0.16801 2.17987,-0.28131 3.02381,0 0.23288,0.0776 2.79093,0.67832 3.02381,0.75595 0.67614,0.22538 1.00793,2.01587 1.5119,1.51191 C 128.00794,103.31349 127,102.45316 127,102.80952 c 0,0.0506 0.75595,4.9244 0.75595,3.02381"
         id="path14" />
      <path
         style="fill:none;stroke:#000000;stroke-width:0.264583px;stroke-linecap:butt;stroke-linejoin:miter;stroke-opacity:1"
         d="m 68.791666,148.16666 c -14.370812,0.0421 -24.889566,18.33043 -6.047618,22.67858 2.426512,0.55996 6.644915,1.4559 9.071427,0 1.383554,-0.83014 2.074804,-2.47488 3.023809,-3.77977 7.160136,-9.84518 7.985215,-18.89881 -6.047618,-18.89881 z"
         id="path16" />
      <path
         style="fill:none;stroke:#000000;stroke-width:0.264583px;stroke-linecap:butt;stroke-linejoin:miter;stroke-opacity:1"
         d="m 120.19643,123.97619 c -5.64344,-0.27288 -14.04369,1.90589 -15.875,8.31547 -0.2769,0.96916 0,2.01588 0,3.02381 0,8.4915 3.27868,12.85119 12.09524,12.85119 0.41285,0 6.43709,0.18324 6.80357,0 3.59649,-1.79824 13.25127,-11.29506 10.58333,-16.63095 -2.19657,-4.39314 -9.53948,-6.20363 -13.60714,-7.55952 z"
         id="path18" />
      <path
         style="fill:none;stroke:#000000;stroke-width:0.264583px;stroke-linecap:butt;stroke-linejoin:miter;stroke-opacity:1"
         d="m 125.48809,156.48214 c -7.8485,-1.11331 -14.1873,1.31447 -21.16666,4.53572 -5.016446,2.31528 -9.639597,4.72542 -14.363098,7.55952 -1.335627,0.80137 -2.663084,1.15118 -3.779761,2.26786 -0.251986,0.25198 -1.007938,1.00793 -0.755954,0.75595 0.503968,-0.50397 2.015874,-2.01587 1.511906,-1.51191 -1.578528,1.57853 -5.020514,3.23746 -6.047618,5.29167 -0.425196,0.85039 2.687489,4.82082 3.023809,5.29167 5.772213,8.0811 14.89094,8.48947 24.190476,7.55952 4.58011,-0.45801 4.09867,-0.96855 8.31548,-3.77976 10.94205,-7.29471 13.44304,-17.45143 12.09523,-24.19048 -0.31643,-1.58215 -2.05572,-2.48897 -3.02381,-3.77976 z"
         id="path24" />
      <g
         id="g42">
        <path
           id="path32"
           d="m 129.26786,110.36905 c 2.51984,-1.25992 5.32649,-2.06205 7.55952,-3.77977 1.16461,-0.89585 1.41384,-2.58413 2.26786,-3.77976 1.0633,-1.48862 4.06633,-3.77976 3.02381,-3.77976 -0.66054,0 0.75595,2.50718 0.75595,0 0,-0.251984 -0.57778,0.178181 -0.75595,0 -0.35636,-0.35636 0.15937,-1.033799 0,-1.511904 -0.17818,-0.53454 -0.6193,-0.965274 -0.75596,-1.511906 -0.61629,-2.465183 -1.79688,-12.516728 -0.75595,-15.119045 1.43819,-3.595473 5.74846,-8.589552 9.07143,-10.583333 1.79371,-1.07623 3.08668,-0.03144 4.53571,-0.755955 0.63748,-0.318735 0.83576,-1.286523 1.51191,-1.511903 0.71716,-0.239053 1.73332,-0.53454 2.26786,0 0.34944,0.349449 -0.22822,1.811433 0,2.267858 1.05736,2.114727 2.57933,1.823378 3.77976,3.023809 0.35636,0.356359 -0.50397,1.511903 0,1.511903 0.25198,0 0.17818,-0.934133 0,-0.755952 -1.35705,1.357048 -2.58459,2.862461 -3.77976,4.535715 -1.99397,2.791553 -4.02117,5.895168 -5.29167,9.071428 -0.56925,1.423133 0.75595,6.068475 0.75595,4.535715 0,-0.563454 -1.25992,-1.76389 -0.75595,-1.511906 1.84854,0.924269 3.77976,4.304704 3.77976,3.023809 0,-0.251984 -1.00793,0 -0.75595,0 0.50397,0 1.15554,0.356359 1.5119,0 0.35636,-0.356359 -0.22538,-1.061141 0,-1.511903 0.95705,-1.914099 8.77209,-12.095239 10.58334,-12.095239 0.50397,0 -0.27956,1.092578 0,1.511905 0.39534,0.593019 0.95536,1.066673 1.5119,1.511904 0.45147,0.361172 6.38543,4.197908 5.29167,5.291666 -0.35636,0.35636 -1.06114,-0.22538 -1.51191,0 -2.17214,1.086075 -3.70548,2.949533 -5.29166,4.535715 -2.83874,2.838739 -4.53572,3.494527 -4.53572,8.315479 0,1.22294 -0.38227,2.26499 0.75595,3.02381 1.64506,1.0967 5.58232,3.25646 7.55953,2.26785 0.81262,-0.40631 0.94434,-1.5584 1.5119,-2.26785 8.49325,-11.324332 -3.36117,4.1846 4.53572,-5.29167 4.42974,-5.315686 1.28747,-4.804014 9.07143,0.755954 0.86258,0.616126 3.02381,1.448646 3.02381,3.023806 0,0.50397 -1.0338,-0.15937 -1.51191,0 -1.3467,0.4489 -2.1288,1.1491 -3.02381,2.26786 -2.16985,2.71232 -4.51139,6.48659 -7.55952,8.31548 -0.68329,0.40997 -1.58457,0.34598 -2.26786,0.75595 -1.78157,1.06894 -0.97622,1.85834 -3.02381,2.26786 -1.70348,0.34069 -5.1736,0 -6.80357,0 -1.07663,0 -2.78168,0.33269 -3.77976,0 -3.8111,-1.27037 -3.48526,-4.68297 -5.29167,-3.77977 -0.46622,0.23312 -5.45595,5.91606 -6.04762,6.80357 -1.00059,1.50089 -4.3211,3.02381 -3.02381,3.02381 z"
           style="fill:#c8b7b7;stroke:#000000;stroke-width:0.26458300000000001px;stroke-linecap:butt;stroke-linejoin:miter;stroke-opacity:1" />
        <path
           id="path38"
           d="m 48.24768,186.72024 c -5.728572,3.97773 -11.702802,7.48324 -18.472377,9.82738 -1.381168,0.47826 -6.418243,2.01341 -8.396533,2.26785 -9.263927,1.1915 -11.7551482,-1.73216 -11.7551482,-9.82738 0,-1.25992 -0.5197323,-2.60995 0,-3.77976 1.3529972,-3.04531 4.6962492,-5.0122 6.7172272,-7.55952 0.727525,-0.917 0.951782,-2.10681 1.679307,-3.02381 3.881227,-4.89206 9.883769,-7.2499 15.953415,-9.07143 0.531042,-0.15937 1.178634,0.22538 1.679305,0 1.075553,-0.48417 3.943036,-2.49765 5.037921,-1.51191 1.122329,1.01045 -0.359113,6.26627 0,7.55953 0.200861,0.72334 3.921075,8.06591 4.198267,8.31547 0.197909,0.17819 0.641745,-0.17818 0.839655,0 0.197907,0.17819 -0.279885,0.75596 0,0.75596 0.279884,0 -0.125169,-0.98134 0,-0.75596 1.334562,2.40306 1.098715,4.24624 2.518961,6.80358 z"
           style="fill:#c8b7b7;stroke:#000000;stroke-width:0.278846px;stroke-linecap:butt;stroke-linejoin:miter;stroke-opacity:1" />
      </g>
    </g>
  </g>
</svg>
